<?xml version="1.0" encoding="utf-8"?>
<!-- Generator: Adobe Illustrator 16.0.4, SVG Export Plug-In . SVG Version: 6.00 Build 0)  -->
<!DOCTYPE svg PUBLIC "-//W3C//DTD SVG 1.1//EN" "http://www.w3.org/Graphics/SVG/1.1/DTD/svg11.dtd">
<svg version="1.1" id="Layer_1" xmlns="http://www.w3.org/2000/svg" xmlns:xlink="http://www.w3.org/1999/xlink" x="0px" y="0px"
	 width="149.29px" height="37.12px" viewBox="0 0 149.29 37.12" enable-background="new 0 0 149.29 37.12" xml:space="preserve">
<g>
	<g>
		<path fill="#FFFFFF" d="M43.61,9.66V9.62c0-4.15,3.23-7.55,7.65-7.55c2.62,0,4.21,0.71,5.73,2l-2.02,2.44
			c-1.13-0.94-2.12-1.48-3.81-1.48c-2.33,0-4.19,2.06-4.19,4.54v0.04c0,2.67,1.84,4.63,4.42,4.63c1.17,0,2.21-0.29,3.02-0.87v-2.09
			h-3.23V8.51h6.33v6.34c-1.5,1.27-3.57,2.31-6.23,2.31C46.73,17.17,43.61,13.97,43.61,9.66z"/>
		<path fill="#FFFFFF" d="M61.78,9.66V9.62c0-4.15,3.27-7.55,7.78-7.55c4.5,0,7.73,3.36,7.73,7.5v0.04c0,4.15-3.27,7.55-7.77,7.55
			S61.78,13.81,61.78,9.66z M73.94,9.66V9.62c0-2.5-1.83-4.59-4.42-4.59s-4.38,2.04-4.38,4.54v0.04c0,2.5,1.84,4.59,4.42,4.59
			C72.15,14.2,73.94,12.16,73.94,9.66z"/>
		<path fill="#FFFFFF" d="M81.74,2.32h6.67c1.85,0,3.29,0.52,4.25,1.48c0.81,0.82,1.25,1.96,1.25,3.34v0.04
			c0,2.36-1.27,3.84-3.13,4.52l3.57,5.21H90.6l-3.12-4.67h-0.04h-2.48v4.67h-3.21V2.32z M88.2,9.41c1.56,0,2.46-0.83,2.46-2.06V7.31
			c0-1.38-0.96-2.08-2.52-2.08h-3.19v4.19H88.2z"/>
		<path fill="#FFFFFF" d="M98.89,2.32h5.69c4.58,0,7.75,3.14,7.75,7.25v0.04c0,4.11-3.17,7.29-7.75,7.29h-5.69V2.32z M104.58,14.02
			c2.63,0,4.4-1.77,4.4-4.35V9.62c0-2.58-1.77-4.4-4.4-4.4h-2.48v8.8H104.58z"/>
		<path fill="#FFFFFF" d="M116.38,9.66V9.62c0-4.15,3.27-7.55,7.77-7.55c4.5,0,7.73,3.36,7.73,7.5v0.04c0,4.15-3.27,7.55-7.78,7.55
			C119.61,17.17,116.38,13.81,116.38,9.66z M128.53,9.66V9.62c0-2.5-1.83-4.59-4.42-4.59c-2.58,0-4.37,2.04-4.37,4.54v0.04
			c0,2.5,1.84,4.59,4.42,4.59C126.74,14.2,128.53,12.16,128.53,9.66z"/>
		<path fill="#FFFFFF" d="M136.33,2.32h2.96l6.84,8.98V2.32h3.17v14.59h-2.73l-7.07-9.28v9.28h-3.17V2.32z"/>
	</g>
	<g>
		<path fill="#FFFFFF" d="M43.61,30.24v-0.02c0-2.28,1.72-4.15,4.18-4.15c1.51,0,2.42,0.51,3.16,1.24l-1.12,1.3
			c-0.62-0.56-1.25-0.9-2.05-0.9c-1.35,0-2.33,1.12-2.33,2.5v0.02c0,1.37,0.95,2.52,2.33,2.52c0.92,0,1.48-0.37,2.11-0.94l1.12,1.14
			c-0.82,0.88-1.74,1.44-3.29,1.44C45.36,34.36,43.61,32.54,43.61,30.24z"/>
		<path fill="#FFFFFF" d="M52.99,30.24v-0.02c0-2.28,1.8-4.15,4.28-4.15c2.48,0,4.26,1.84,4.26,4.13v0.02c0,2.28-1.8,4.15-4.28,4.15
			C54.76,34.36,52.99,32.52,52.99,30.24z M59.68,30.24v-0.02c0-1.38-1.01-2.52-2.44-2.52c-1.42,0-2.4,1.12-2.4,2.5v0.02
			c0,1.37,1.01,2.52,2.43,2.52C58.68,32.73,59.68,31.61,59.68,30.24z"/>
		<path fill="#FFFFFF" d="M64.24,26.2H66v6.42h4v1.61h-5.76V26.2z"/>
		<path fill="#FFFFFF" d="M72.48,26.2h1.77v6.42h4v1.61h-5.77V26.2z"/>
		<path fill="#FFFFFF" d="M80.72,26.2h6.05v1.57h-4.3v1.63h3.78v1.57h-3.78v1.68h4.36v1.57h-6.11V26.2z"/>
		<path fill="#FFFFFF" d="M89.19,30.24v-0.02c0-2.28,1.78-4.15,4.21-4.15c1.45,0,2.32,0.39,3.16,1.1l-1.12,1.34
			c-0.62-0.52-1.17-0.81-2.1-0.81c-1.28,0-2.31,1.13-2.31,2.5v0.02c0,1.46,1.01,2.54,2.43,2.54c0.64,0,1.22-0.16,1.66-0.48v-1.14
			h-1.77v-1.53h3.48v3.49c-0.82,0.7-1.96,1.27-3.43,1.27C90.91,34.36,89.19,32.61,89.19,30.24z"/>
		<path fill="#FFFFFF" d="M99.68,26.2h6.05v1.57h-4.3v1.63h3.78v1.57h-3.78v1.68h4.36v1.57h-6.11V26.2z"/>
	</g>
	<g>
		<path fill="#FFFFFF" d="M18.56,5.79c-6.99,0-12.68,5.69-12.68,12.68c0,6.99,5.69,12.68,12.68,12.68c6.99,0,12.68-5.69,12.68-12.68
			C31.24,11.48,25.55,5.79,18.56,5.79z"/>
		<path fill="#FFFFFF" d="M18.56,2.47c-8.84,0-16,7.16-16,16c0,8.83,7.17,16,16,16c8.83,0,16-7.17,16-16
			C34.56,9.63,27.4,2.47,18.56,2.47z M4.01,19.19c-0.35,0-0.64-0.28-0.64-0.63c0-0.35,0.29-0.64,0.64-0.64
			c0.35,0,0.64,0.28,0.64,0.64C4.65,18.91,4.36,19.19,4.01,19.19z M18.56,31.59c-7.25,0-13.12-5.87-13.12-13.12
			c0-7.25,5.88-13.12,13.12-13.12c7.25,0,13.12,5.87,13.12,13.12C31.68,25.72,25.81,31.59,18.56,31.59z M33.13,19.19
			c-0.35,0-0.64-0.28-0.64-0.63c0-0.35,0.28-0.64,0.64-0.64c0.35,0,0.64,0.28,0.64,0.64C33.77,18.91,33.49,19.19,33.13,19.19z"/>
		<path fill="#FFFFFF" d="M36.03,21.16L36.03,21.16c0.67-0.66,1.09-1.58,1.09-2.6c0-1.02-0.43-1.95-1.11-2.61l0.01,0
			c-0.28-0.27-0.46-0.64-0.46-1.06c0-0.22,0.05-0.43,0.14-0.62l0,0c0.36-0.87,0.4-1.87,0.01-2.81c-0.39-0.94-1.13-1.63-2.02-1.98
			l0-0.01c-0.36-0.14-0.67-0.42-0.83-0.81c-0.09-0.2-0.12-0.41-0.11-0.62h-0.01c0.01-0.94-0.35-1.88-1.06-2.6
			c-0.73-0.72-1.67-1.08-2.62-1.06V4.37c-0.39,0.01-0.78-0.13-1.08-0.43c-0.15-0.16-0.27-0.34-0.34-0.53h0
			c-0.36-0.87-1.04-1.6-1.98-1.99c-0.94-0.4-1.95-0.36-2.82,0.02l0-0.01c-0.36,0.16-0.78,0.18-1.16,0.02
			c-0.21-0.08-0.38-0.21-0.52-0.36l-0.01,0C20.49,0.42,19.58,0,18.56,0c-1.02,0-1.94,0.42-2.6,1.09l0,0
			c-0.27,0.29-0.65,0.46-1.07,0.46c-0.22,0-0.43-0.05-0.61-0.14l-0.01,0.01c-0.87-0.37-1.87-0.4-2.81-0.02
			c-0.94,0.39-1.63,1.13-1.98,2h0C9.33,3.78,9.04,4.09,8.65,4.25c-0.2,0.09-0.41,0.12-0.61,0.11v0.01C7.1,4.37,6.15,4.72,5.44,5.44
			C4.72,6.15,4.36,7.1,4.38,8.04H4.37c0.01,0.4-0.13,0.79-0.43,1.09C3.78,9.29,3.6,9.4,3.41,9.47l0,0.01
			c-0.88,0.35-1.62,1.04-2.01,1.98c-0.39,0.94-0.36,1.95,0.02,2.81l-0.01,0c0.17,0.36,0.19,0.78,0.02,1.17
			c-0.08,0.2-0.2,0.37-0.35,0.51l0,0.01C0.42,16.62,0,17.54,0,18.56c0,1.02,0.42,1.94,1.09,2.6l0,0c0.28,0.27,0.46,0.65,0.46,1.08
			c0,0.21-0.04,0.41-0.12,0.6l0,0c-0.38,0.87-0.41,1.88-0.02,2.83c0.39,0.94,1.13,1.63,2.01,1.98l0,0c0.37,0.14,0.68,0.42,0.84,0.82
			c0.08,0.19,0.11,0.4,0.11,0.6h0.01c-0.01,0.95,0.34,1.9,1.06,2.62c0.72,0.72,1.67,1.07,2.61,1.06v0c0.4-0.01,0.79,0.14,1.09,0.44
			c0.15,0.15,0.27,0.32,0.33,0.51l0,0c0.35,0.88,1.04,1.62,1.99,2.02c0.94,0.39,1.96,0.35,2.82-0.02l0,0.01
			c0.36-0.16,0.77-0.18,1.16-0.02c0.2,0.08,0.37,0.2,0.5,0.35l0.01-0.01c0.66,0.68,1.58,1.1,2.6,1.1c1.02,0,1.95-0.42,2.6-1.1l0,0
			c0.27-0.28,0.65-0.45,1.07-0.45c0.21,0,0.42,0.04,0.6,0.13l0-0.01c0.87,0.37,1.88,0.41,2.82,0.02c0.95-0.39,1.64-1.14,1.99-2.02
			l0,0c0.15-0.36,0.43-0.67,0.81-0.82c0.2-0.08,0.4-0.12,0.61-0.11l0-0.01c0.94,0.01,1.89-0.34,2.61-1.06
			c0.72-0.72,1.07-1.68,1.06-2.63h0c0-0.39,0.14-0.78,0.43-1.07c0.16-0.15,0.33-0.27,0.52-0.34v0c0.88-0.35,1.61-1.04,2-1.98
			c0.39-0.95,0.35-1.97-0.02-2.83l0,0c-0.15-0.35-0.17-0.77-0.01-1.15C35.76,21.47,35.89,21.3,36.03,21.16z M18.56,34.91
			c-9.08,0-16.44-7.36-16.44-16.44c0-9.08,7.37-16.44,16.44-16.44C27.64,2.03,35,9.39,35,18.47C35,27.55,27.64,34.91,18.56,34.91z"
			/>
		<g>
			<g>
				<g>
					<path fill="#014983" d="M6.23,10.75L6.23,10.75c-0.32-0.22-0.43-0.66-0.18-1.01c0.14-0.2,0.28-0.29,0.46-0.33l0.07,0.23
						C6.43,9.68,6.32,9.73,6.22,9.88c-0.15,0.21-0.07,0.5,0.15,0.65h0.01c0.23,0.17,0.52,0.13,0.68-0.11
						c0.08-0.11,0.11-0.23,0.1-0.33L6.95,9.94l-0.21,0.29l-0.18-0.12L6.9,9.63l0.49,0.33c0.02,0.18-0.01,0.4-0.15,0.61
						C6.99,10.92,6.56,10.98,6.23,10.75z"/>
					<path fill="#014983" d="M7.31,9.23L7.31,9.23C7.02,8.97,6.98,8.52,7.27,8.21C7.56,7.89,8,7.89,8.29,8.15l0,0
						c0.29,0.26,0.33,0.71,0.04,1.03C8.05,9.5,7.61,9.5,7.31,9.23z M8.13,8.35L8.13,8.35c-0.21-0.19-0.5-0.19-0.69,0.01
						c-0.19,0.21-0.16,0.5,0.05,0.68v0c0.2,0.18,0.5,0.19,0.69-0.02C8.36,8.82,8.33,8.53,8.13,8.35z"/>
					<path fill="#014983" d="M8.27,7.23l0.47-0.41c0.13-0.11,0.27-0.16,0.4-0.15c0.11,0.01,0.2,0.06,0.28,0.15l0,0
						C9.58,7,9.56,7.19,9.45,7.36l0.63,0.16L9.86,7.71L9.28,7.56l0,0l-0.23,0.2l0.32,0.37L9.18,8.29L8.27,7.23z M9.18,7.36
						C9.31,7.25,9.34,7.1,9.25,6.99H9.24C9.15,6.88,9.01,6.89,8.87,7.01L8.6,7.24l0.3,0.36L9.18,7.36z"/>
					<path fill="#014983" d="M9.68,6.08l0.43-0.29c0.37-0.24,0.78-0.16,1,0.17l0,0c0.22,0.33,0.13,0.75-0.24,0.99l-0.43,0.29
						L9.68,6.08z M10.75,6.77c0.25-0.16,0.3-0.43,0.15-0.66v0c-0.15-0.23-0.42-0.29-0.67-0.13l-0.23,0.15l0.52,0.79L10.75,6.77z"/>
					<path fill="#014983" d="M11.58,5.7L11.58,5.7c-0.18-0.36-0.05-0.79,0.34-0.97c0.39-0.19,0.8-0.03,0.97,0.33v0.01
						c0.17,0.35,0.04,0.78-0.34,0.97C12.16,6.22,11.75,6.06,11.58,5.7z M12.66,5.18L12.66,5.18c-0.12-0.25-0.4-0.36-0.65-0.24
						c-0.25,0.12-0.33,0.4-0.21,0.65l0,0c0.12,0.24,0.39,0.36,0.64,0.24C12.7,5.71,12.78,5.43,12.66,5.18z"/>
					<path fill="#014983" d="M13.22,4.19l0.22-0.07l1.01,0.69l-0.3-0.92l0.23-0.08l0.44,1.33l-0.2,0.07l-1.04-0.71l0.31,0.95
						l-0.23,0.07L13.22,4.19z"/>
					<path fill="#014983" d="M15.99,4.15L15.99,4.15c-0.05-0.4,0.2-0.76,0.62-0.82c0.25-0.03,0.42,0.03,0.57,0.14l-0.13,0.2
						c-0.13-0.09-0.25-0.14-0.41-0.12c-0.27,0.03-0.43,0.28-0.39,0.55v0c0.04,0.28,0.26,0.47,0.52,0.43
						c0.17-0.02,0.27-0.1,0.37-0.23l0.18,0.14c-0.12,0.17-0.27,0.29-0.52,0.32C16.39,4.83,16.05,4.55,15.99,4.15z"/>
					<path fill="#014983" d="M17.7,3.95L17.7,3.95C17.7,3.55,18,3.22,18.43,3.22c0.43-0.01,0.73,0.31,0.73,0.71v0
						c0,0.39-0.3,0.73-0.73,0.73C18,4.66,17.7,4.34,17.7,3.95z M18.91,3.94L18.91,3.94c0-0.28-0.2-0.5-0.48-0.5
						c-0.28,0-0.47,0.23-0.46,0.5l0,0c0,0.27,0.2,0.5,0.48,0.5C18.71,4.44,18.91,4.21,18.91,3.94z"/>
					<path fill="#014983" d="M19.81,3.28l0.25,0.03l-0.13,1.17l0.73,0.08l-0.02,0.22l-0.97-0.11L19.81,3.28z"/>
					<path fill="#014983" d="M21.38,3.49l0.23,0.06L21.37,4.7l0.72,0.16l-0.05,0.22l-0.96-0.21L21.38,3.49z"/>
					<path fill="#014983" d="M22.92,3.86l0.98,0.33L23.83,4.4l-0.75-0.25L22.97,4.5l0.67,0.22l-0.07,0.2L22.9,4.7l-0.12,0.36
						l0.76,0.25l-0.07,0.21l-0.99-0.33L22.92,3.86z"/>
					<path fill="#014983" d="M24.17,5.05L24.17,5.05c0.17-0.36,0.58-0.53,0.96-0.35c0.22,0.11,0.33,0.23,0.4,0.4l-0.22,0.1
						c-0.06-0.13-0.13-0.23-0.29-0.3c-0.23-0.11-0.51,0.01-0.62,0.25v0c-0.12,0.26-0.04,0.53,0.22,0.66
						c0.12,0.06,0.24,0.07,0.35,0.05l0.11-0.24l-0.32-0.15l0.09-0.19l0.54,0.26l-0.25,0.53c-0.18,0.05-0.4,0.05-0.62-0.05
						C24.12,5.82,23.99,5.41,24.17,5.05z"/>
					<path fill="#014983" d="M26.25,5.31l0.87,0.55l-0.11,0.18l-0.67-0.42l-0.2,0.31l0.59,0.37l-0.12,0.19l-0.59-0.37l-0.2,0.32
						l0.68,0.43l-0.12,0.19l-0.89-0.56L26.25,5.31z"/>
					<path fill="#014983" d="M28.31,7.07l-0.24-0.11l0.09-0.18l0.37,0.15l0.13,0.11l-0.92,1.07l-0.19-0.16L28.31,7.07z"/>
					<path fill="#014983" d="M28.37,8.17L28.37,8.17c0.12-0.12,0.26-0.13,0.42-0.06c-0.04-0.12-0.03-0.25,0.08-0.36l0-0.01
						c0.15-0.15,0.42-0.11,0.61,0.09c0.19,0.2,0.22,0.46,0.07,0.61l0,0c-0.11,0.11-0.24,0.11-0.37,0.07
						c0.06,0.16,0.05,0.3-0.06,0.41h0c-0.18,0.18-0.45,0.12-0.66-0.1C28.24,8.61,28.2,8.34,28.37,8.17z M28.96,8.75L28.96,8.75
						c0.09-0.09,0.06-0.24-0.05-0.36c-0.11-0.12-0.26-0.15-0.36-0.06l0,0.01c-0.08,0.08-0.07,0.23,0.06,0.35
						C28.73,8.82,28.87,8.83,28.96,8.75z M29.37,8.29L29.37,8.29c0.08-0.08,0.07-0.21-0.03-0.32c-0.1-0.11-0.24-0.12-0.31-0.04h0
						c-0.09,0.09-0.07,0.22,0.03,0.33C29.15,8.36,29.28,8.37,29.37,8.29z"/>
					<path fill="#014983" d="M29.4,9.25L29.4,9.25c0.13-0.1,0.28-0.1,0.43-0.02c-0.03-0.13,0-0.26,0.12-0.35l0,0
						c0.17-0.13,0.43-0.07,0.6,0.15c0.17,0.22,0.17,0.48,0,0.62v0c-0.12,0.1-0.25,0.09-0.37,0.03c0.04,0.16,0.02,0.31-0.11,0.4v0.01
						c-0.2,0.15-0.46,0.07-0.65-0.17C29.22,9.68,29.21,9.41,29.4,9.25z M29.92,9.89L29.92,9.89c0.1-0.08,0.09-0.23-0.01-0.36
						c-0.1-0.13-0.25-0.18-0.35-0.1l0,0c-0.09,0.07-0.1,0.22,0.02,0.36C29.69,9.94,29.83,9.97,29.92,9.89z M30.38,9.48L30.38,9.48
						c0.08-0.07,0.09-0.2,0-0.32c-0.09-0.12-0.22-0.14-0.3-0.08l0,0c-0.1,0.07-0.1,0.21-0.01,0.32C30.15,9.52,30.28,9.55,30.38,9.48
						z"/>
					<path fill="#014983" d="M30.13,10.61l0.23,0.01c-0.02,0.14,0,0.24,0.06,0.34c0.1,0.17,0.33,0.18,0.55,0.05
						c-0.11-0.01-0.22-0.08-0.3-0.2c-0.16-0.25-0.12-0.51,0.11-0.65l0,0c0.23-0.15,0.53-0.08,0.69,0.18
						c0.09,0.15,0.11,0.27,0.08,0.41c-0.03,0.14-0.13,0.28-0.36,0.42l0,0c-0.38,0.24-0.76,0.22-0.96-0.1
						C30.12,10.91,30.11,10.76,30.13,10.61z M31.23,10.84L31.23,10.84c0.12-0.08,0.16-0.23,0.07-0.39c-0.09-0.14-0.25-0.17-0.37-0.1
						l0,0c-0.12,0.08-0.15,0.23-0.06,0.37C30.96,10.89,31.11,10.91,31.23,10.84z"/>
				</g>
				<g>
					<path fill="#014983" d="M6.11,24.83l0.14,0.23l-0.71,0.82l1.07-0.25l0.11,0.18L6,26.64l1.06-0.26l0.14,0.22l-1.45,0.32
						l-0.11-0.18l0.68-0.82l-1.04,0.23l-0.11-0.18L6.11,24.83z"/>
					<path fill="#014983" d="M7.38,26.81l0.65,0.81l-0.17,0.13l-0.5-0.61l-0.28,0.22l0.44,0.55l-0.17,0.14L6.9,27.5l-0.29,0.24
						l0.5,0.62L6.94,28.5l-0.65-0.82L7.38,26.81z"/>
					<path fill="#014983" d="M8.26,27.88l0.16,0.16l-0.16,1.21l0.69-0.68l0.17,0.17l-0.99,0.99l-0.14-0.15l0.16-1.25l-0.71,0.7
						l-0.17-0.17L8.26,27.88z"/>
					<path fill="#014983" d="M9.42,29.01l0.19,0.16l-0.36,0.45l0.52,0.41l0.36-0.45l0.19,0.15l-0.87,1.09l-0.19-0.15l0.37-0.46
						L9.1,29.8l-0.37,0.46L8.55,30.1L9.42,29.01z"/>
					<path fill="#014983" d="M11.06,30.22l0.19,0.12l-0.23,1.52l-0.22-0.14l0.06-0.36l-0.56-0.35l-0.3,0.21L9.8,31.08L11.06,30.22z
						 M10.92,31.13l0.09-0.6l-0.5,0.35L10.92,31.13z"/>
					<path fill="#014983" d="M12.02,30.8l0.23,0.11l0.11,0.78l0.67-0.42l0.23,0.11l-0.59,1.27l-0.22-0.11l0.43-0.91l-0.68,0.41l0,0
						l-0.12-0.78l-0.42,0.91l-0.22-0.1L12.02,30.8z"/>
					<path fill="#014983" d="M13.03,32.98c0.12,0.02,0.2-0.02,0.22-0.12l-0.1-0.04l0.09-0.25l0.25,0.09l-0.08,0.22
						c-0.07,0.21-0.21,0.26-0.4,0.21L13.03,32.98z"/>
					<path fill="#014983" d="M14.95,31.95L15.2,32l0.28,0.74l0.55-0.56l0.26,0.06l-0.3,1.36l-0.24-0.05l0.21-0.98l-0.57,0.55
						l-0.01,0l-0.29-0.73l-0.21,0.98l-0.23-0.05L14.95,31.95z"/>
					<path fill="#014983" d="M17.17,32.33l0.23,0.02l0.48,1.46l-0.26-0.02l-0.11-0.35l-0.66-0.06l-0.17,0.32l-0.25-0.02L17.17,32.33
						z M17.44,33.21l-0.19-0.58l-0.29,0.53L17.44,33.21z"/>
					<path fill="#014983" d="M18.2,33.61l0.15-0.18c0.14,0.11,0.27,0.18,0.44,0.17c0.16,0,0.25-0.07,0.25-0.18v0
						c0-0.1-0.06-0.16-0.32-0.21c-0.3-0.07-0.47-0.15-0.47-0.41v0c0-0.24,0.19-0.41,0.47-0.41c0.2,0,0.37,0.06,0.51,0.17l-0.13,0.19
						c-0.12-0.09-0.25-0.14-0.38-0.14c-0.14,0-0.23,0.08-0.23,0.17v0c0,0.11,0.07,0.15,0.33,0.22c0.29,0.07,0.45,0.17,0.45,0.4v0.01
						c0.01,0.26-0.2,0.42-0.49,0.43C18.58,33.83,18.38,33.76,18.2,33.61z"/>
					<path fill="#014983" d="M19.64,33.57l0.13-0.19c0.14,0.1,0.28,0.15,0.46,0.13c0.15-0.02,0.24-0.1,0.23-0.2v-0.01
						c-0.01-0.1-0.08-0.15-0.34-0.18c-0.3-0.04-0.48-0.11-0.51-0.36v0c-0.03-0.24,0.15-0.42,0.43-0.45c0.2-0.02,0.37,0.02,0.52,0.12
						l-0.11,0.2c-0.14-0.08-0.27-0.11-0.4-0.1c-0.14,0.02-0.22,0.1-0.21,0.19l0,0c0.01,0.11,0.08,0.15,0.35,0.18
						c0.31,0.04,0.47,0.13,0.49,0.36v0.01c0.03,0.26-0.16,0.43-0.45,0.46C20.03,33.76,19.82,33.7,19.64,33.57z"/>
					<path fill="#014983" d="M21.39,32.11l0.22-0.05l0.9,1.25l-0.25,0.06l-0.21-0.3l-0.65,0.14l-0.07,0.36l-0.25,0.05L21.39,32.11z
						 M21.9,32.88l-0.35-0.5l-0.11,0.6L21.9,32.88z"/>
					<path fill="#014983" d="M22.56,32.57L22.56,32.57c-0.12-0.38,0.05-0.78,0.46-0.92c0.25-0.08,0.42-0.04,0.59,0.03l-0.09,0.22
						c-0.14-0.06-0.28-0.09-0.43-0.04c-0.25,0.08-0.37,0.35-0.29,0.61l0,0c0.09,0.26,0.34,0.41,0.59,0.33
						c0.16-0.06,0.25-0.16,0.33-0.3l0.2,0.1c-0.09,0.19-0.21,0.33-0.46,0.41C23.08,33.16,22.69,32.95,22.56,32.57z"/>
					<path fill="#014983" d="M23.84,31.39l0.22-0.1l0.24,0.53l0.61-0.28l-0.25-0.53l0.22-0.1l0.58,1.27l-0.22,0.1L25,31.74
						l-0.6,0.28l0.24,0.53l-0.23,0.1L23.84,31.39z"/>
					<path fill="#014983" d="M25.64,31.42l-0.42-0.69l0.21-0.13l0.41,0.68c0.14,0.22,0.32,0.27,0.51,0.16
						c0.19-0.11,0.23-0.29,0.1-0.51l-0.42-0.69l0.21-0.13l0.41,0.68c0.22,0.36,0.12,0.66-0.19,0.85
						C26.16,31.82,25.85,31.76,25.64,31.42z"/>
					<path fill="#014983" d="M27.21,30.9l0.02-0.23c0.18,0.02,0.32-0.01,0.46-0.12c0.12-0.09,0.16-0.2,0.09-0.29l0,0
						c-0.06-0.08-0.14-0.09-0.38,0.02c-0.28,0.12-0.46,0.15-0.62-0.05l0-0.01c-0.14-0.19-0.09-0.44,0.13-0.61
						c0.16-0.12,0.33-0.17,0.51-0.16l0.01,0.22c-0.16,0-0.29,0.04-0.39,0.12c-0.11,0.09-0.14,0.2-0.08,0.27v0.01
						c0.07,0.09,0.14,0.09,0.4-0.02c0.28-0.12,0.46-0.13,0.6,0.05l0.01,0c0.16,0.21,0.09,0.46-0.15,0.63
						C27.64,30.85,27.44,30.92,27.21,30.9z"/>
					<path fill="#014983" d="M27.62,29.08l0.75-0.71l0.15,0.16l-0.58,0.54l0.25,0.26l0.51-0.48l0.15,0.16l-0.51,0.48l0.26,0.28
						l0.58-0.55l0.15,0.16l-0.76,0.72L27.62,29.08z"/>
					<path fill="#014983" d="M29.05,27.99l-0.29,0.33l-0.17-0.16l0.75-0.84l0.17,0.15l-0.3,0.33l0.87,0.78l-0.17,0.18L29.05,27.99z"
						/>
					<path fill="#014983" d="M29.93,26.93l-0.27,0.36l-0.18-0.14l0.67-0.91l0.19,0.13l-0.26,0.36l0.94,0.7l-0.14,0.2L29.93,26.93z"
						/>
					<path fill="#014983" d="M31.29,26.68l-0.07-0.21c0.16-0.06,0.29-0.14,0.38-0.29c0.08-0.13,0.07-0.25-0.02-0.3h-0.01
						c-0.09-0.05-0.16-0.03-0.35,0.16c-0.21,0.22-0.37,0.32-0.6,0.19h0c-0.21-0.12-0.25-0.38-0.11-0.62
						c0.11-0.18,0.24-0.29,0.41-0.35l0.09,0.21c-0.14,0.06-0.25,0.14-0.32,0.25c-0.07,0.13-0.05,0.23,0.03,0.28l0,0
						c0.09,0.06,0.17,0.02,0.36-0.17c0.21-0.21,0.38-0.29,0.58-0.18h0c0.23,0.13,0.25,0.39,0.1,0.65
						C31.67,26.48,31.5,26.61,31.29,26.68z"/>
				</g>
			</g>
			<g>
				<path fill="#014983" d="M16.92,28.66c0.51,0.51,1.05,1.04,1.64,1.58c0.59-0.54,1.13-1.07,1.64-1.58
					c6.8-6.87,6.33-11.6,6.33-18.76h-8.02l0,0h-7.93C10.59,17.06,10.12,21.79,16.92,28.66z M19.6,17.1h6.16
					c-0.43,3.6-1.76,6.93-5.84,11.05c-0.11,0.11-0.22,0.22-0.32,0.33V17.1z M19.6,10.56h6.35c0,0.35,0,0.93,0,0.93
					c0,0.39,0,0.77,0,1.14c0,0.8-0.01,1.57-0.03,2.31H19.6V10.56z M11.36,17.1h6.16v11.38c-0.11-0.11-0.22-0.22-0.32-0.33
					C13.13,24.03,11.79,20.7,11.36,17.1z M11.17,12.64c0-0.37,0-0.75,0-1.14c0,0,0-0.58,0-0.93h6.35v4.39H11.2
					C11.17,14.2,11.17,13.43,11.17,12.64z"/>
			</g>
			<g>
				<g>
					<polygon fill="#014983" points="22.77,12.71 22.56,13.13 22.1,13.2 22.43,13.53 22.35,14 22.77,13.78 23.2,14 23.11,13.53 
						23.45,13.2 22.98,13.13 					"/>
					<g>
						<polygon fill="#014983" points="21.18,11.41 20.97,11.84 20.5,11.9 20.84,12.23 20.76,12.7 21.18,12.48 21.6,12.7 
							21.52,12.23 21.86,11.9 21.39,11.84 						"/>
						<polygon fill="#014983" points="24.36,11.41 24.15,11.84 23.69,11.9 24.03,12.23 23.95,12.7 24.36,12.48 24.78,12.7 
							24.7,12.23 25.05,11.9 24.58,11.84 						"/>
					</g>
				</g>
			</g>
			<g>
				<g>
					<polygon fill="#014983" points="14.3,12.71 14.09,13.13 13.61,13.2 13.96,13.53 13.88,14 14.3,13.78 14.72,14 14.64,13.53 
						14.98,13.2 14.51,13.13 					"/>
					<g>
						<polygon fill="#014983" points="12.7,11.41 12.49,11.84 12.03,11.9 12.37,12.23 12.28,12.7 12.7,12.48 13.12,12.7 
							13.05,12.23 13.38,11.9 12.91,11.84 						"/>
						<polygon fill="#014983" points="15.89,11.41 15.68,11.84 15.21,11.9 15.55,12.23 15.47,12.7 15.89,12.48 16.31,12.7 
							16.23,12.23 16.57,11.9 16.1,11.84 						"/>
					</g>
				</g>
			</g>
			<path fill="#014983" d="M14.98,7.56c0.05,0.17-0.12,0.29-0.17,0.3c-0.03,0.01-0.06,0-0.06-0.01c-0.01-0.02,0-0.05,0.03-0.07
				c0.04-0.04,0.09-0.09,0.08-0.15c-0.01-0.04-0.06-0.05-0.1-0.04c-0.02,0-0.09,0-0.1-0.06c-0.02-0.07,0.04-0.12,0.09-0.13
				C14.82,7.38,14.95,7.43,14.98,7.56z M15.34,7.67c-0.06-0.21-0.08-0.23-0.25-0.23c-0.05,0-0.07-0.02-0.08-0.04
				c0-0.01,0.03-0.05,0.07-0.06c0.04-0.01,0.14-0.03,0.25-0.06c0.15-0.04,0.21-0.07,0.28-0.09c0.03-0.01,0.07,0,0.07,0.03
				c0.01,0.02-0.02,0.05-0.04,0.06c-0.14,0.08-0.14,0.11-0.11,0.24c0.02,0.1,0.1,0.37,0.14,0.54c0.08,0.27,0.12,0.41,0.12,0.44
				c0.04,0.11,0.08,0.13,0.24,0.13c0.05,0,0.08,0.01,0.08,0.03c0.01,0.03-0.04,0.06-0.07,0.07c-0.02,0.01-0.21,0.05-0.29,0.07
				c-0.09,0.03-0.23,0.08-0.27,0.1c-0.03,0.01-0.07,0-0.08-0.02c-0.01-0.02,0.02-0.05,0.05-0.07c0.12-0.08,0.13-0.11,0.12-0.16
				c-0.01-0.05-0.1-0.42-0.15-0.63L15.34,7.67z"/>
			<path fill="#014983" d="M16.37,7.6c0.04,0.04,0.05,0.11,0.06,0.18c0,0.08,0.01,0.19,0.01,0.22c0,0.02,0.03,0.01,0.03-0.01
				c0.05-0.21,0.11-0.34,0.19-0.45c0.04-0.05,0.1-0.08,0.16-0.1c0.09-0.02,0.16,0.05,0.2,0.13c0.02,0.04,0.03,0.11,0.05,0.18
				c0.04,0.22,0.23,1.27,0.24,1.31c0.01,0.02-0.03,0.04-0.04,0.05c-0.05,0.01-0.19-0.02-0.21-0.06c-0.01-0.02-0.01-0.05-0.02-0.13
				c-0.01-0.08-0.08-1.04-0.1-1.14c-0.02-0.08-0.05-0.15-0.12-0.14c-0.03,0.01-0.12,0.04-0.17,0.2c-0.06,0.18-0.09,0.36-0.14,0.76
				c0,0.01-0.02,0.03-0.02,0.03c-0.04,0-0.12-0.02-0.12-0.02c-0.01-0.01-0.02-0.03-0.02-0.03c0-0.05,0-0.34,0-0.45
				c-0.01-0.21-0.04-0.29-0.07-0.32c-0.03-0.03-0.07-0.04-0.11-0.03c-0.03,0.01-0.05,0.02-0.08,0.03c0,0-0.03-0.01-0.04-0.03
				c-0.01-0.03-0.01-0.06,0.01-0.09c0.03-0.11,0.13-0.14,0.16-0.14C16.27,7.54,16.33,7.55,16.37,7.6z"/>
			<path fill="#014983" d="M18.54,7.53c-0.01,0.02-0.06,0.04-0.08,0.04c-0.06,0-0.2,0-0.28,0c0,0-0.02,0.02-0.01,0.03
				c0.05,0.08,0.13,0.21,0.13,0.28c0.01,0.15-0.02,0.33-0.11,0.43c-0.08,0.1-0.21,0.17-0.31,0.18C17.7,8.49,17.43,8.34,17.41,8
				c-0.01-0.21,0.07-0.4,0.19-0.51c0.08-0.06,0.18-0.11,0.22-0.11c0.05,0,0.37-0.01,0.51-0.01c0.12,0,0.16-0.02,0.21-0.06
				c0.01,0,0.03,0.02,0.03,0.04C18.58,7.38,18.55,7.49,18.54,7.53z M17.66,7.71c-0.08,0.12-0.1,0.25-0.1,0.35
				c0.01,0.22,0.14,0.26,0.24,0.25C18,8.3,18.13,8.04,18.12,7.8c-0.01-0.17-0.06-0.21-0.08-0.22c-0.03-0.02-0.1-0.02-0.15-0.02
				C17.78,7.58,17.7,7.63,17.66,7.71z"/>
			<path fill="#014983" d="M19.48,7.46c0.14,0.12,0.19,0.3,0.18,0.48c-0.01,0.2-0.12,0.34-0.21,0.42c-0.11,0.1-0.28,0.13-0.35,0.12
				c-0.06,0-0.17-0.05-0.27-0.17c-0.09-0.11-0.13-0.26-0.12-0.4c0.01-0.14,0.05-0.27,0.16-0.39c0.11-0.12,0.28-0.17,0.37-0.16
				C19.34,7.36,19.42,7.4,19.48,7.46z M18.98,7.68c-0.07,0.07-0.12,0.18-0.13,0.3c0,0.1,0.02,0.19,0.11,0.24
				c0.04,0.03,0.08,0.04,0.12,0.04c0.08,0.01,0.21-0.01,0.31-0.12c0.07-0.07,0.12-0.21,0.13-0.34c0-0.04,0-0.07-0.01-0.09
				c-0.02-0.05-0.08-0.15-0.2-0.16C19.2,7.54,19.08,7.58,18.98,7.68z"/>
			<path fill="#014983" d="M20.56,8.52c-0.11,0.08-0.25,0.09-0.29,0.08C20.14,8.58,20.02,8.45,20,8.37C19.99,8.36,20,8.28,20,8.26
				c0.03-0.1,0.12-0.39,0.13-0.44c0.02-0.11-0.03-0.14-0.1-0.15C20,7.67,19.97,7.66,19.95,7.66c-0.01,0-0.02-0.02-0.01-0.05
				c0.02-0.07,0.17-0.16,0.3-0.15c0.06,0.01,0.11,0.08,0.12,0.15c0,0.02-0.02,0.09-0.03,0.11c-0.06,0.13-0.14,0.37-0.16,0.5
				c-0.01,0.03,0,0.08,0.01,0.09c0.02,0.03,0.07,0.07,0.13,0.08c0.14,0.03,0.34-0.08,0.42-0.5c0.02-0.06,0-0.25-0.02-0.33
				c-0.01-0.02,0.05-0.02,0.06-0.02c0.04,0,0.05,0.03,0.08,0.08c0.04,0.08,0.05,0.21,0.03,0.34C20.81,8.28,20.69,8.42,20.56,8.52z
				 M20.83,7.3c0,0.04-0.02,0.07-0.05,0.06c-0.03,0-0.04-0.04-0.04-0.07c-0.02-0.09-0.06-0.14-0.15-0.16
				c-0.07-0.01-0.14,0.01-0.2,0.1c-0.02,0.02-0.04,0.05-0.06,0.05c-0.03,0-0.04-0.03-0.02-0.07c0.05-0.19,0.19-0.27,0.33-0.25
				C20.75,7,20.86,7.1,20.83,7.3z"/>
			<path fill="#014983" d="M21.9,8.03c-0.01,0.01-0.02,0.01-0.04,0c-0.27-0.06-0.58,0.04-0.64,0.27c-0.05,0.17,0.02,0.26,0.17,0.3
				c0.04,0.01,0.17,0.04,0.22,0.06c0.04,0.01,0.07,0.05,0.08,0.08c0.01,0.05,0.01,0.11-0.01,0.18c-0.06,0.2-0.28,0.38-0.43,0.34
				c-0.03-0.01-0.06-0.03-0.08-0.07c-0.01-0.03-0.01-0.07,0-0.09c0.01-0.01,0.02-0.03,0.06-0.03c0.16,0,0.32-0.07,0.34-0.12
				c0-0.02,0.01-0.07-0.04-0.08c-0.05-0.01-0.17-0.03-0.26-0.06c-0.06-0.01-0.12-0.07-0.14-0.11c-0.04-0.06-0.08-0.2-0.02-0.4
				c0.06-0.23,0.24-0.38,0.38-0.43c0.17-0.07,0.27-0.07,0.38-0.05c0.07,0.02,0.12,0.07,0.1,0.14C21.95,7.98,21.92,8.03,21.9,8.03z"
				/>
			<path fill="#014983" d="M9.37,17.14c0,0.05-0.02,0.17-0.03,0.26c-0.01,0.1-0.01,0.2-0.01,0.25c-0.01,0.03-0.03,0.07-0.05,0.06
				c-0.03,0-0.04-0.03-0.04-0.06c-0.01-0.04-0.03-0.08-0.09-0.04c-0.04,0.02-0.35,0.18-0.38,0.22c-0.01,0.01-0.03,0.02-0.01,0.04
				c0.02,0.01,0.17,0.15,0.32,0.26c0.07,0.05,0.09,0.04,0.13-0.05c0.02-0.04,0.02-0.06,0.04-0.06c0.02,0,0.05,0.04,0.04,0.05
				c0,0.05-0.02,0.11-0.02,0.19c0,0.07,0,0.24-0.01,0.29c0,0.04-0.01,0.06-0.03,0.06c-0.02,0-0.05-0.03-0.06-0.08
				c-0.02-0.13-0.06-0.22-0.17-0.32c-0.09-0.08-0.23-0.2-0.34-0.3c-0.02-0.01-0.03-0.01-0.05,0c-0.05,0.02-0.46,0.26-0.54,0.32
				C7.99,18.3,7.94,18.35,7.9,18.5c-0.02,0.05-0.04,0.07-0.06,0.07c-0.04-0.01-0.04-0.05-0.04-0.08c0.01-0.1,0.03-0.23,0.04-0.34
				c0-0.07,0-0.16,0.01-0.19c0-0.03,0.02-0.07,0.05-0.06c0.03,0.01,0.03,0.02,0.05,0.06c0.01,0.04,0.03,0.08,0.08,0.06
				c0.07-0.04,0.37-0.2,0.44-0.25c0.01-0.01,0.02-0.02,0.01-0.04c-0.13-0.13-0.3-0.26-0.38-0.31c-0.05-0.03-0.06-0.01-0.1,0.04
				C7.95,17.5,7.94,17.5,7.92,17.5c-0.02,0-0.04-0.02-0.04-0.07c0.01-0.04,0.02-0.14,0.03-0.21c0-0.06,0-0.2,0-0.25
				c0.01-0.02,0.02-0.07,0.05-0.07c0.02,0,0.04,0.03,0.05,0.06c0.02,0.11,0.05,0.23,0.13,0.31c0.13,0.13,0.27,0.27,0.43,0.39
				c0.01,0.01,0.03,0.01,0.05,0c0.06-0.02,0.37-0.2,0.47-0.27c0.13-0.08,0.15-0.16,0.19-0.26c0.02-0.06,0.04-0.07,0.06-0.07
				C9.36,17.07,9.38,17.1,9.37,17.14z"/>
			<path fill="#014983" d="M7.98,19.39c-0.11-0.09-0.13-0.21-0.14-0.29c-0.01-0.09,0.02-0.13,0.09-0.22c0,0,0.01-0.02,0-0.02
				c-0.24,0.02-0.46,0.06-0.51,0.06c-0.06,0.01-0.11,0.02-0.14,0.04c-0.01,0.01-0.04-0.03-0.04-0.04c0-0.02-0.01-0.09,0.01-0.13
				c0.02-0.03,0.07-0.06,0.11-0.06c0.04-0.01,0.64-0.02,0.92-0.03c0.24-0.01,0.39,0.03,0.49,0.15c0.06,0.07,0.09,0.17,0.09,0.23
				c0.01,0.24-0.22,0.43-0.48,0.44C8.2,19.53,8.09,19.48,7.98,19.39z M8.12,18.84c-0.04,0-0.08,0.03-0.08,0.03
				C8,18.92,8.01,18.98,8.01,19.02c0.02,0.25,0.22,0.38,0.45,0.37c0.13-0.01,0.23-0.07,0.23-0.21C8.67,18.99,8.58,18.82,8.12,18.84z
				"/>
			<path fill="#014983" d="M7.9,19.98c-0.01-0.05,0-0.1,0.05-0.13c0.05-0.04,0.17-0.06,0.19-0.06c0.13-0.02,0.66-0.09,0.72-0.1
				c0.02,0,0.05,0.02,0.05,0.02c0,0.02,0.01,0.14,0.01,0.16c0,0.01,0,0.03-0.07,0.04c-0.13,0.01-0.55,0.02-0.66,0.03
				c-0.07,0.01-0.09,0.03-0.07,0.12c0.01,0.03,0.01,0.05,0.03,0.07c0,0.01-0.05,0.03-0.05,0.03C7.97,20.12,7.9,20.02,7.9,19.98z"/>
			<path fill="#014983" d="M8.99,21.18c-0.03,0-0.05-0.05-0.05-0.07c-0.01-0.05-0.03-0.18-0.04-0.25c0,0-0.02-0.02-0.03-0.01
				c-0.07,0.07-0.17,0.14-0.23,0.16c-0.14,0.03-0.3,0.02-0.41-0.04c-0.1-0.06-0.18-0.16-0.2-0.25c-0.03-0.15,0.07-0.42,0.37-0.48
				c0.19-0.04,0.38,0.01,0.49,0.1c0.07,0.05,0.12,0.15,0.13,0.18c0.01,0.05,0.07,0.33,0.08,0.46c0.02,0.11,0.05,0.14,0.09,0.18
				c0.01,0.01-0.02,0.03-0.03,0.04C9.13,21.2,9.02,21.19,8.99,21.18z M8.7,20.4c-0.12-0.05-0.24-0.05-0.33-0.03
				c-0.2,0.04-0.21,0.16-0.19,0.25c0.04,0.18,0.29,0.26,0.51,0.22c0.15-0.03,0.18-0.08,0.19-0.11c0.01-0.03,0-0.08-0.01-0.14
				C8.83,20.5,8.77,20.44,8.7,20.4z"/>
			<path fill="#014983" d="M9.31,22.11c-0.02-0.01-0.06-0.06-0.07-0.08c-0.02-0.05-0.06-0.23-0.07-0.26c0-0.01-0.02-0.01-0.03-0.01
				c-0.12,0.01-0.35,0.06-0.46,0.1c-0.03,0.01-0.08,0.09-0.06,0.16c0.01,0.04,0.02,0.06,0.05,0.09c0.01,0.01-0.02,0.04-0.04,0.04
				c-0.12,0.01-0.23-0.09-0.26-0.18c-0.03-0.09,0.04-0.16,0.19-0.21c0.1-0.03,0.35-0.07,0.57-0.1c0.01,0,0.02-0.02,0.02-0.02
				c-0.01-0.05-0.03-0.09-0.05-0.16c-0.01-0.05-0.06-0.12-0.18-0.16c-0.02-0.01-0.05-0.03-0.05-0.04c-0.01-0.02,0.01-0.03,0.04-0.04
				c0.04-0.02,0.14-0.01,0.21,0.03c0.07,0.04,0.14,0.13,0.16,0.19c0.02,0.07,0.12,0.44,0.15,0.52c0.01,0.03,0.04,0.08,0.08,0.1
				c0.01,0.01-0.02,0.04-0.03,0.04C9.45,22.13,9.34,22.12,9.31,22.11z"/>
			<path fill="#014983" d="M9.7,22.74c-0.04,0.16-0.17,0.28-0.31,0.35c-0.17,0.08-0.33,0.05-0.43,0.01
				c-0.13-0.04-0.22-0.17-0.25-0.23c-0.02-0.05-0.03-0.17,0.03-0.29c0.06-0.12,0.16-0.21,0.27-0.26c0.12-0.05,0.24-0.07,0.39-0.03
				c0.15,0.04,0.25,0.16,0.28,0.23C9.71,22.59,9.72,22.66,9.7,22.74z M9.31,22.42c-0.09-0.03-0.2-0.02-0.29,0.02
				c-0.08,0.03-0.16,0.1-0.16,0.19c0,0.05,0,0.08,0.02,0.12c0.04,0.07,0.1,0.16,0.22,0.2c0.1,0.03,0.24,0.01,0.34-0.03
				c0.03-0.01,0.05-0.03,0.08-0.05c0.04-0.03,0.09-0.12,0.04-0.23C9.51,22.54,9.43,22.47,9.31,22.42z"/>
			<path fill="#014983" d="M10.08,23.65c-0.02,0-0.02-0.01-0.03-0.02c-0.14-0.22-0.4-0.35-0.6-0.24c-0.14,0.08-0.15,0.18-0.08,0.3
				c0.02,0.04,0.08,0.14,0.11,0.18c0.01,0.03,0.01,0.08-0.01,0.1c-0.02,0.04-0.06,0.08-0.12,0.11c-0.16,0.09-0.43,0.07-0.5-0.06
				c-0.01-0.02-0.02-0.06,0-0.09c0.01-0.04,0.04-0.06,0.06-0.06c0.02-0.01,0.02-0.01,0.06,0.02c0.1,0.11,0.25,0.17,0.3,0.14
				c0.02-0.01,0.05-0.04,0.03-0.08c-0.02-0.04-0.09-0.13-0.13-0.21c-0.02-0.05-0.03-0.13-0.02-0.17c0.02-0.06,0.08-0.18,0.24-0.27
				c0.19-0.1,0.4-0.09,0.53-0.04c0.16,0.07,0.23,0.13,0.28,0.22c0.03,0.06,0.03,0.13-0.03,0.16C10.15,23.65,10.09,23.65,10.08,23.65
				z"/>
			<path fill="#014983" d="M11.27,25.42c-0.19,0.16-0.49,0.23-0.77,0.12c-0.11-0.04-0.23-0.13-0.33-0.24
				c-0.28-0.35-0.23-0.83,0.1-1.09c0.14-0.12,0.34-0.19,0.54-0.17c0.21,0.02,0.42,0.13,0.55,0.29
				C11.64,24.67,11.62,25.15,11.27,25.42z M10.96,24.21c-0.15-0.01-0.32,0.04-0.51,0.18c-0.25,0.21-0.4,0.6-0.17,0.88
				c0.06,0.08,0.16,0.14,0.27,0.16c0.13,0.02,0.32-0.02,0.54-0.2c0.26-0.21,0.38-0.6,0.16-0.87C11.19,24.27,11.06,24.22,10.96,24.21
				z M10.91,24.82c0.06,0.06,0.08,0.08,0.18,0.08c0.02,0,0.05,0.01,0.07,0.02c0.01,0.02-0.02,0.05-0.05,0.06
				c-0.1,0.03-0.19,0.06-0.28,0.11c-0.03,0.02-0.06,0.03-0.08,0.01c-0.01-0.02,0-0.04,0-0.07c0.04-0.06,0.05-0.08,0.01-0.12
				l-0.12-0.14c-0.06-0.07-0.08-0.06-0.16-0.07c-0.03,0-0.06-0.01-0.07-0.02c-0.02-0.02,0.01-0.04,0.02-0.05
				c0.08-0.03,0.19-0.07,0.29-0.13c0.04-0.02,0.07-0.02,0.08-0.01c0.01,0.02,0,0.04-0.01,0.06c-0.04,0.07-0.04,0.09,0,0.14
				L10.91,24.82z"/>
			<path fill="#014983" d="M11.96,25.79c-0.02,0.02-0.09,0.04-0.12,0.01c-0.15-0.14-0.33-0.19-0.42-0.1
				c-0.02,0.03-0.03,0.06-0.01,0.1c0,0,0.02,0.01,0.04,0.02c0.07,0.03,0.18,0.07,0.23,0.11c0.02,0.03,0.03,0.09,0.01,0.11
				c-0.05,0.05-0.14,0.06-0.19,0.02c-0.01-0.01-0.08-0.07-0.09-0.08c-0.02-0.01-0.03-0.02-0.04-0.03c-0.11-0.05-0.2-0.04-0.24-0.01
				c-0.04,0.04,0,0.12,0.07,0.18c0.08,0.07,0.2,0.14,0.31,0.16c0.01,0,0.03,0.03,0.01,0.04c-0.01,0.01-0.07,0.05-0.11,0.06
				c-0.12,0.01-0.26-0.04-0.36-0.14c-0.12-0.12-0.09-0.29-0.03-0.35c0.07-0.07,0.19-0.1,0.26-0.09c0,0,0.02-0.01,0.02-0.02
				c-0.02-0.07-0.02-0.17,0.02-0.21c0.07-0.07,0.18-0.11,0.28-0.09c0.1,0.02,0.21,0.07,0.28,0.14
				C11.98,25.7,11.99,25.76,11.96,25.79z"/>
			<path fill="#014983" d="M12.6,26.32c0.04,0.16-0.02,0.33-0.12,0.45c-0.11,0.14-0.27,0.19-0.38,0.2c-0.14,0.02-0.27-0.05-0.33-0.1
				c-0.05-0.04-0.1-0.13-0.11-0.27c0-0.13,0.04-0.26,0.12-0.36c0.08-0.1,0.18-0.17,0.33-0.21c0.15-0.03,0.29,0.02,0.35,0.08
				C12.54,26.17,12.58,26.24,12.6,26.32z M12.11,26.22c-0.09,0.01-0.19,0.07-0.26,0.15c-0.05,0.06-0.09,0.15-0.05,0.24
				c0.02,0.05,0.04,0.07,0.07,0.1c0.06,0.05,0.16,0.1,0.29,0.08c0.1-0.02,0.21-0.1,0.28-0.19c0.03-0.02,0.04-0.05,0.05-0.08
				c0.02-0.04,0.02-0.15-0.06-0.22C12.34,26.23,12.23,26.2,12.11,26.22z"/>
			<path fill="#014983" d="M12.96,27.56c-0.14,0.04-0.26-0.01-0.3-0.04c-0.12-0.08-0.18-0.24-0.17-0.32c0-0.02,0.04-0.08,0.06-0.1
				c0.07-0.08,0.27-0.31,0.29-0.35c0.06-0.08,0.03-0.14-0.03-0.18c-0.03-0.02-0.06-0.04-0.07-0.05c-0.02,0-0.01-0.03,0.01-0.05
				c0.05-0.05,0.23-0.08,0.33-0.01c0.05,0.03,0.07,0.11,0.05,0.18c-0.01,0.02-0.05,0.08-0.07,0.1c-0.1,0.09-0.28,0.28-0.35,0.39
				c-0.02,0.03-0.03,0.07-0.02,0.09c0.01,0.03,0.03,0.09,0.08,0.12c0.13,0.08,0.36,0.06,0.59-0.29c0.03-0.05,0.1-0.24,0.11-0.31
				c0-0.02,0.06,0,0.07,0.01c0.03,0.02,0.04,0.05,0.04,0.11c0,0.09-0.04,0.21-0.11,0.33C13.29,27.44,13.12,27.53,12.96,27.56z
				 M13.71,26.5c-0.02,0.03-0.06,0.05-0.07,0.03c-0.03-0.02-0.02-0.06-0.01-0.08c0.03-0.1,0.02-0.15-0.06-0.21
				c-0.06-0.04-0.13-0.05-0.22,0c-0.03,0.01-0.06,0.02-0.08,0.01c-0.02-0.02-0.01-0.04,0.01-0.07c0.13-0.14,0.29-0.15,0.4-0.07
				C13.78,26.19,13.83,26.33,13.71,26.5z"/>
			<path fill="#014983" d="M24.96,25.55c0.01,0.02,0.02-0.01,0.02-0.01c-0.11-0.28-0.08-0.54,0.08-0.71
				c0.07-0.07,0.18-0.12,0.28-0.11c0.04,0,0.06,0.01,0.08,0.04c0.01,0.01-0.01,0.05-0.02,0.06c-0.1,0.02-0.16,0.07-0.22,0.12
				c-0.16,0.16-0.15,0.44,0.01,0.71c0.04,0.06,0.09,0.12,0.15,0.18c0.08,0.08,0.22,0.23,0.31,0.32c0.1,0.1,0.16,0.05,0.26,0
				c0.03-0.02,0.07-0.02,0.08-0.01c0.02,0.02,0.01,0.06-0.01,0.08c-0.02,0.01-0.14,0.12-0.17,0.15c-0.15,0.14-0.23,0.25-0.26,0.28
				c-0.04,0.03-0.08,0.04-0.1,0.03c-0.02-0.02,0-0.07,0.01-0.09c0.09-0.15,0.08-0.18-0.01-0.29c-0.06-0.07-0.22-0.25-0.29-0.32
				c-0.04-0.05-0.11-0.12-0.16-0.15c-0.26-0.19-0.48-0.24-0.67-0.06c-0.08,0.08-0.12,0.2-0.14,0.25c-0.01,0.02-0.03,0.02-0.04,0.01
				c-0.03-0.02-0.02-0.08-0.02-0.12c0.01-0.11,0.07-0.24,0.17-0.34C24.46,25.42,24.71,25.39,24.96,25.55z"/>
			<path fill="#014983" d="M25.86,24.7c-0.05,0.07-0.18,0.1-0.29,0.02c-0.14-0.11-0.08-0.3-0.05-0.34c0.03-0.03,0.05-0.04,0.06-0.03
				c0.01,0.01,0.03,0.04,0.02,0.07c0,0.06-0.01,0.13,0.03,0.17c0.04,0.03,0.07,0,0.11-0.03c0.01-0.01,0.07-0.05,0.12-0.02
				C25.92,24.58,25.89,24.67,25.86,24.7z"/>
			<path fill="#014983" d="M26.77,25.42c-0.03,0.04-0.08,0.07-0.13,0.06c-0.07-0.01-0.16-0.08-0.17-0.1
				c-0.1-0.08-0.52-0.42-0.56-0.46c-0.02-0.02-0.02-0.04-0.02-0.04c0.02-0.03,0.1-0.11,0.12-0.12c0,0,0.02-0.02,0.07,0.03
				c0.1,0.08,0.38,0.39,0.48,0.46c0.05,0.04,0.08,0.04,0.13-0.03c0.02-0.02,0.03-0.04,0.04-0.07c0-0.01,0.05,0.02,0.06,0.03
				C26.83,25.27,26.8,25.39,26.77,25.42z"/>
			<path fill="#014983" d="M25.86,23.89c0.08,0.01,0.31,0.07,0.38,0.08c0.03,0.01,0.06,0.05,0.04,0.08
				c-0.01,0.02-0.05,0.03-0.08,0.03c-0.1,0.01-0.22,0.02-0.33,0.02c-0.04,0-0.08-0.01-0.08-0.02c-0.04-0.03-0.04-0.13-0.01-0.17
				C25.79,23.91,25.83,23.88,25.86,23.89z M26.57,23.98c0.18-0.05,0.36-0.01,0.5,0.09c0.16,0.12,0.22,0.29,0.25,0.4
				c0.03,0.15-0.04,0.31-0.08,0.37c-0.04,0.05-0.13,0.12-0.29,0.14c-0.14,0.02-0.29-0.03-0.4-0.11c-0.12-0.09-0.2-0.19-0.25-0.35
				c-0.05-0.16,0.01-0.32,0.06-0.39C26.41,24.05,26.48,24,26.57,23.98z M26.49,24.52c0.02,0.1,0.09,0.2,0.18,0.27
				c0.08,0.06,0.17,0.09,0.27,0.04c0.05-0.02,0.07-0.05,0.1-0.09c0.05-0.07,0.1-0.18,0.06-0.32c-0.03-0.1-0.12-0.22-0.22-0.3
				c-0.03-0.02-0.06-0.03-0.09-0.04c-0.05-0.01-0.16-0.01-0.23,0.09C26.49,24.27,26.46,24.38,26.49,24.52z"/>
			<path fill="#014983" d="M10.14,22.1c-0.05,0.07-0.19,0.25-0.24,0.31c-0.02,0.02-0.07,0.03-0.09,0c-0.02-0.02-0.01-0.06,0-0.08
				c0.03-0.1,0.07-0.21,0.12-0.3c0.02-0.04,0.04-0.06,0.04-0.06c0.05-0.03,0.14,0.02,0.17,0.06C10.15,22.04,10.16,22.07,10.14,22.1z
				"/>
			<path fill="#014983" d="M27.24,23.2c0,0.01,0,0.03,0,0.04c-0.12,0.23-0.1,0.53,0.09,0.63c0.14,0.09,0.24,0.04,0.31-0.08
				c0.02-0.03,0.07-0.14,0.1-0.19c0.02-0.03,0.06-0.05,0.09-0.05c0.05,0,0.1,0.01,0.15,0.05c0.16,0.09,0.27,0.33,0.21,0.46
				c-0.02,0.02-0.04,0.04-0.08,0.05c-0.04,0-0.07,0-0.09-0.02c-0.01-0.01-0.02-0.02-0.01-0.06c0.04-0.14,0.01-0.3-0.04-0.33
				c-0.02-0.01-0.06-0.02-0.08,0.02c-0.02,0.04-0.07,0.15-0.12,0.22c-0.03,0.05-0.09,0.09-0.13,0.1c-0.06,0.02-0.19,0.03-0.35-0.07
				c-0.19-0.11-0.29-0.3-0.3-0.43c-0.03-0.17,0-0.26,0.04-0.35c0.03-0.06,0.09-0.09,0.15-0.07C27.2,23.13,27.23,23.18,27.24,23.2z"
				/>
			<path fill="#014983" d="M27.25,21.64c0.05-0.13,0.06-0.19,0.05-0.25c0-0.02,0.04-0.03,0.05-0.02c0.08,0.05,0.18,0.12,0.25,0.15
				c0.03,0.01,0.06,0.05,0.06,0.08c-0.01,0.02-0.05,0.02-0.08,0.02c-0.15-0.01-0.17-0.03-0.24,0.09c-0.03,0.07-0.15,0.38-0.19,0.5
				c-0.01,0.01,0,0.03,0.02,0.02c0.1-0.03,0.49-0.2,0.65-0.28c0.02,0,0.05-0.01,0.06,0.01c0.08,0.22,0.25,0.58,0.3,0.69
				c0.01,0.02,0.01,0,0.03-0.01c0.05-0.05,0.11-0.21,0.22-0.49c0.06-0.16,0.08-0.23-0.03-0.37c-0.02-0.02-0.04-0.06-0.03-0.09
				c0.01-0.03,0.07-0.01,0.1,0.01c0.05,0.04,0.09,0.09,0.13,0.12c0.04,0.03,0.06,0.06,0.08,0.09c0.01,0.01,0.02,0.05,0.01,0.08
				c-0.04,0.1-0.17,0.41-0.26,0.64l-0.06,0.15c-0.02,0.06-0.06,0.17-0.08,0.23c0,0.01-0.02,0.04-0.04,0.02
				c-0.02-0.02-0.05-0.07-0.06-0.09c-0.07-0.21-0.28-0.67-0.32-0.75c-0.01-0.02-0.02-0.02-0.03-0.02c-0.08,0.03-0.63,0.25-0.8,0.33
				c-0.02,0.01-0.05,0.02-0.08,0.01c-0.02,0-0.03-0.02-0.03-0.03l0.13-0.29L27.25,21.64z"/>
			<path fill="#014983" d="M29.01,20.82c-0.04,0.15-0.23,0.17-0.26,0.17c0,0-0.01,0.01-0.01,0.02c0.09,0.08,0.17,0.23,0.14,0.32
				c-0.03,0.13-0.27,0.27-0.53,0.2c-0.2-0.05-0.32-0.13-0.39-0.24c-0.05-0.06-0.08-0.16-0.08-0.19c0.01-0.04,0.09-0.09,0.11-0.09
				c0.02,0,0.05,0.03,0.07,0.05c0.03,0.1,0.16,0.31,0.39,0.36c0.16,0.04,0.24-0.04,0.26-0.12c0.03-0.11-0.07-0.24-0.15-0.26
				c-0.06-0.01-0.15-0.02-0.16-0.02c-0.03-0.01-0.05-0.02-0.07-0.05c-0.02-0.02-0.02-0.07-0.01-0.12c0.01-0.04,0.07-0.1,0.13-0.08
				c0.02,0,0.09,0.04,0.14,0.08c0.02,0.01,0.05,0.04,0.07,0.04c0.09,0.01,0.16-0.04,0.17-0.1c0.02-0.08-0.02-0.23-0.32-0.31
				c-0.14-0.04-0.31,0-0.43,0.06c-0.01,0.01-0.04,0-0.04-0.02c-0.01-0.01-0.01-0.05,0-0.06c0.02-0.08,0.27-0.2,0.54-0.14
				C28.99,20.43,29.04,20.71,29.01,20.82z"/>
			<path fill="#014983" d="M28.4,19.24c0.02,0.02,0.02,0.08,0.02,0.1c0,0.05-0.04,0.24-0.04,0.26c0,0.01,0.01,0.02,0.02,0.02
				c0.11,0.04,0.35,0.09,0.46,0.1c0.03,0.01,0.12-0.04,0.12-0.11c0-0.04,0.01-0.07,0-0.11c0-0.01,0.04-0.03,0.06-0.02
				c0.11,0.04,0.17,0.18,0.16,0.27c-0.01,0.09-0.11,0.13-0.26,0.11c-0.11-0.01-0.35-0.09-0.56-0.15c-0.01,0-0.03,0-0.03,0
				c-0.01,0.05-0.02,0.1-0.03,0.17c0,0.05,0,0.14,0.1,0.22c0.02,0.02,0.03,0.04,0.03,0.05c0,0.02-0.02,0.03-0.05,0.02
				c-0.04-0.01-0.13-0.05-0.18-0.12c-0.04-0.06-0.07-0.18-0.06-0.24c0.01-0.07,0.07-0.45,0.08-0.53c0.01-0.03-0.01-0.09-0.03-0.13
				c-0.01-0.01,0.03-0.03,0.04-0.02C28.28,19.16,28.38,19.21,28.4,19.24z"/>
			<path fill="#014983" d="M27.66,18.17c0.03,0,0.26,0.18,0.33,0.25c0.02,0.02,0.05,0.06,0.05,0.08c0,0.03-0.04,0.04-0.09,0.02
				c-0.02-0.01-0.2-0.09-0.31-0.15c-0.05-0.03-0.08-0.06-0.08-0.07C27.55,18.25,27.61,18.17,27.66,18.17z M28.22,18.69
				c0.05-0.03,0.12-0.03,0.19-0.02c0.07,0.01,0.19,0.02,0.23,0.03c0.01,0,0.01-0.03-0.01-0.04c-0.19-0.09-0.31-0.17-0.4-0.27
				c-0.04-0.05-0.07-0.12-0.07-0.17c0-0.09,0.08-0.15,0.17-0.18c0.04,0,0.12-0.01,0.19,0c0.22,0,1.29,0.01,1.33,0
				c0.02,0,0.04,0.04,0.04,0.05c0,0.05-0.06,0.18-0.1,0.19c-0.02,0.01-0.05,0.02-0.13,0c-0.08-0.01-1.03-0.12-1.14-0.13
				c-0.08,0-0.15,0.02-0.15,0.09c0,0.03,0.02,0.13,0.16,0.21c0.17,0.1,0.33,0.16,0.73,0.29c0.01,0,0.02,0.02,0.02,0.02
				c0,0.04-0.04,0.11-0.05,0.12c-0.02,0.02-0.03,0.02-0.03,0.02c-0.05-0.01-0.34-0.07-0.45-0.08c-0.21-0.03-0.3-0.02-0.33,0
				c-0.03,0.02-0.05,0.06-0.05,0.1c0,0.03,0.01,0.05,0.01,0.09c0,0-0.02,0.03-0.03,0.03c-0.03,0-0.06-0.01-0.09-0.02
				c-0.1-0.05-0.11-0.16-0.11-0.19C28.14,18.78,28.16,18.72,28.22,18.69z"/>
			<path fill="#014983" d="M29.03,17.19c0.11,0.09,0.15,0.21,0.15,0.29c0.01,0.08-0.02,0.13-0.08,0.22c0,0,0,0.02,0.01,0.02
				c0.24-0.03,0.46-0.08,0.51-0.09c0.06-0.01,0.11-0.03,0.14-0.04c0.01,0,0.04,0.03,0.04,0.03c0,0.02,0.01,0.08,0,0.13
				c-0.01,0.03-0.07,0.06-0.11,0.06c-0.04,0-0.64,0.04-0.92,0.07c-0.24,0.02-0.39-0.03-0.49-0.13c-0.06-0.06-0.09-0.17-0.1-0.23
				c-0.02-0.24,0.2-0.44,0.46-0.46C28.81,17.05,28.93,17.11,29.03,17.19z M28.91,17.74c0.04,0,0.08-0.04,0.08-0.04
				c0.05-0.04,0.04-0.11,0.03-0.14c-0.03-0.26-0.24-0.37-0.46-0.35c-0.13,0.01-0.23,0.08-0.22,0.22
				C28.36,17.62,28.45,17.78,28.91,17.74z"/>
		</g>
	</g>
</g>
</svg>
